<svg xmlns="http://www.w3.org/2000/svg" version="1.1" xmlns:xlink="http://www.w3.org/1999/xlink" xmlns:svgjs="http://svgjs.dev/svgjs" width="1500" height="1500" viewBox="0 0 1500 1500"><g transform="matrix(1,0,0,1,-0.7499999999998863,-0.7499999999998863)"><svg viewBox="0 0 280 280" data-background-color="#ffffff" preserveAspectRatio="xMidYMid meet" height="1500" width="1500" xmlns="http://www.w3.org/2000/svg" xmlns:xlink="http://www.w3.org/1999/xlink"><g id="tight-bounds" transform="matrix(1,0,0,1,0.13999999999998636,0.13999999999998636)"><svg viewBox="0 0 279.72 279.72" height="279.72" width="279.72"><g><svg viewBox="0 0 279.72 279.72" height="279.72" width="279.72"><g><svg viewBox="0 0 279.72 279.72" height="279.72" width="279.72"><g id="textblocktransform"><svg viewBox="0 0 279.72 279.72" height="279.72" width="279.72" id="textblock"><g><svg viewBox="0 0 279.72 279.72" height="279.72" width="279.72"><g transform="matrix(1,0,0,1,57.446704652707865,57.446704652707865)"><svg viewBox="0 0 164.8265906945843 164.8265906945843" height="164.8265906945843" width="164.8265906945843"><g id="icon-0"><circle r="82" cx="82.41329534729215" cy="82.41329534729215" fill="#eb7043" data-fill-palette-color="accent"></circle><svg xmlns="http://www.w3.org/2000/svg" xmlns:xlink="http://www.w3.org/1999/xlink" version="1.1" x="24.723988604187646" y="24.72398860418764" viewBox="18.00041165484283 20.236 64.00054832402864 59.52800070105431" style="enable-background:new 0 0 100 100;" xml:space="preserve" height="115.378613486209" width="115.378613486209" class="icon-jxe-0" data-fill-palette-color="quaternary" id="jxe-0"><g fill="#ffffff" data-fill-palette-color="quaternary"><path d="M81.814 40.017A2.13 2.13 0 0 0 80.084 38.749L76.86 38.402A23 23 0 0 0 75.237 36.041 22 22 0 0 0 72.744 33.3C72.534 33.106 72.316 32.914 72.098 32.721L72.344 28.216V28.213A2.13 2.13 0 0 0 71.364 26.3 2.12 2.12 0 0 0 69.224 26.188L64.885 28.39C64.687 28.312 64.487 28.229 64.295 28.165A21 21 0 0 0 61.7 27.411L58.183 21.306C57.79 20.636 57.097 20.236 56.323 20.236S54.857 20.636 54.465 21.309L50.946 27.416C40.126 29.896 32.303 39.675 32.303 50.815 32.303 54.762 33.27 58.576 35.1 62.02L32.992 60.635A4.34 4.34 0 0 1 31.418 58.79L27.57 50.24A4.403 4.403 0 0 0 21.755 48.035L20.592 48.556A4.4 4.4 0 0 0 18.388 54.37L23.078 64.802A7.3 7.3 0 0 0 25.73 67.914L37.771 75.797V79.03A0.73 0.73 0 0 0 38.502 79.764H78.323A0.733 0.733 0 0 0 79.056 79.031V69.23A3.736 3.736 0 0 0 75.324 65.498H75.282C78.547 61.299 80.345 56.153 80.345 50.815 80.345 48.763 80.083 46.76 79.589 44.883L81.584 42.15A2.12 2.12 0 0 0 81.814 40.017M69.888 27.494A0.67 0.67 0 0 1 70.568 27.53C70.668 27.595 70.898 27.783 70.88 28.14L70.692 31.573C70.635 31.531 70.572 31.497 70.514 31.454A24 24 0 0 0 68.88 30.354C68.821 30.318 68.766 30.277 68.707 30.241A23 23 0 0 0 66.781 29.208C66.736 29.187 66.695 29.16 66.65 29.138zM55.732 22.044C55.912 21.734 56.205 21.701 56.324 21.701S56.736 21.735 56.914 22.041L59.8 27.048C59.7 27.033 59.602 27.028 59.503 27.015 59.125 26.965 58.747 26.924 58.367 26.891 58.193 26.876 58.02 26.861 57.845 26.85A25 25 0 0 0 56.555 26.802C56.478 26.802 56.4 26.794 56.324 26.794S56.168 26.802 56.09 26.803C55.662 26.807 55.234 26.823 54.806 26.85 54.63 26.86 54.454 26.876 54.278 26.89 53.898 26.924 53.52 26.966 53.141 27.016 53.044 27.029 52.946 27.034 52.85 27.048zM77.59 69.23V78.299H71.762V74.993A0.733 0.733 0 0 0 70.296 74.993V78.3H39.236V75.4A0.74 0.74 0 0 0 38.905 74.787L26.535 66.687A5.8 5.8 0 0 1 24.416 64.203L19.724 53.768A2.936 2.936 0 0 1 21.194 49.892L22.354 49.372A2.936 2.936 0 0 1 26.233 50.841L30.082 59.389A5.8 5.8 0 0 0 32.186 61.86L36.948 64.988C37.153 65.267 37.376 65.527 37.592 65.797 37.762 66.007 37.922 66.227 38.097 66.43 38.34 66.716 38.602 66.983 38.857 67.254 39.035 67.442 39.204 67.64 39.386 67.821 39.685 68.12 40.002 68.398 40.315 68.679 40.469 68.815 40.612 68.961 40.767 69.093 41.242 69.497 41.733 69.88 42.237 70.243 42.38 70.355 42.534 70.467 42.676 70.562 46.698 73.352 51.417 74.826 56.324 74.826S65.95 73.352 69.97 70.565C70.597 70.135 71.214 69.66 71.798 69.16 72.218 68.81 72.624 68.44 73.018 68.057 73.16 67.919 73.29 67.772 73.428 67.63 73.644 67.412 73.863 67.198 74.067 66.971A3 3 0 0 1 74.254 66.964H75.324A2.27 2.27 0 0 1 77.59 69.23M73.145 65.8A21 21 0 0 1 70.851 68.041 22.38 22.38 0 0 1 56.323 73.361 22.4 22.4 0 0 1 43.5 69.35 6 6 0 0 1 43.12 69.072 22 22 0 0 1 40.397 66.762C40.296 66.66 40.203 66.548 40.103 66.444 39.788 66.117 39.473 65.79 39.176 65.442 38.786 64.984 38.412 64.509 38.055 64.018A22.4 22.4 0 0 1 33.769 50.815C33.769 40.249 41.258 30.975 51.577 28.765 54.712 28.095 57.935 28.095 61.07 28.765H61.074C62.02 28.963 62.933 29.224 63.81 29.548 64.09 29.64 64.362 29.743 64.66 29.873A22.1 22.1 0 0 1 70.874 33.591C71.167 33.848 71.459 34.105 71.745 34.374A20.7 20.7 0 0 1 74.08 36.94 22 22 0 0 1 75.8 39.466 22 22 0 0 1 78.019 44.646C78.03 44.702 78.046 44.758 78.081 44.882 78.085 44.896 78.092 44.907 78.096 44.92L78.092 44.922C78.614 46.8 78.879 48.782 78.879 50.815A22.47 22.47 0 0 1 73.145 65.8M80.401 41.285L79.07 43.106C79.059 43.066 79.042 43.028 79.027 42.987A24 24 0 0 0 78.588 41.835C78.54 41.715 78.498 41.593 78.448 41.475 78.237 40.976 78.008 40.486 77.764 40.004 77.758 39.996 77.754 39.984 77.748 39.973L79.925 40.206A0.67 0.67 0 0 1 80.473 40.608 0.67 0.67 0 0 1 80.401 41.285" fill="#ffffff" data-fill-palette-color="quaternary"></path><path d="M74.834 41.057A0.7 0.7 0 0 0 74.736 40.851 0.5 0.5 0 0 0 74.673 40.768 0.7 0.7 0 0 0 74.471 40.62C74.451 40.61 74.44 40.59 74.42 40.582 74.414 40.58 74.408 40.582 74.403 40.58 74.396 40.577 74.39 40.57 74.383 40.569A0.7 0.7 0 0 0 74.08 40.535C74.053 40.537 74.029 40.55 74.004 40.555A0.7 0.7 0 0 0 73.772 40.642C73.758 40.65 73.742 40.649 73.728 40.658 69.058 43.883 62.878 45.658 56.324 45.658S43.589 43.883 38.919 40.658C38.906 40.65 38.89 40.651 38.877 40.643A0.7 0.7 0 0 0 38.637 40.553C38.614 40.548 38.593 40.537 38.57 40.535A0.7 0.7 0 0 0 38.264 40.569C38.257 40.57 38.252 40.577 38.244 40.579 38.24 40.583 38.235 40.58 38.229 40.583 38.208 40.59 38.196 40.61 38.176 40.62A0.7 0.7 0 0 0 37.974 40.768C37.95 40.794 37.932 40.822 37.912 40.85A0.7 0.7 0 0 0 37.813 41.057C37.807 41.08 37.79 41.095 37.785 41.117A19.3 19.3 0 0 0 37.405 44.91C37.405 55.337 45.892 63.82 56.324 63.82S75.243 55.337 75.243 44.91C75.243 43.645 75.115 42.368 74.863 41.117 74.858 41.095 74.84 41.079 74.834 41.057M72.781 42.964L71.516 46.627 69.614 46.077A0.733 0.733 0 0 0 68.707 46.578L67.465 50.83 64.016 49.152A0.735 0.735 0 0 0 63.132 49.342L59.976 53.14 56.83 50.137A0.733 0.733 0 0 0 55.818 50.137L52.671 53.14 49.516 49.342A0.735 0.735 0 0 0 48.63 49.152L45.184 50.83 43.94 46.576A0.73 0.73 0 0 0 43.035 46.078L41.132 46.628 39.867 42.963C44.517 45.648 50.267 47.124 56.324 47.124 62.38 47.124 68.13 45.647 72.78 42.964M56.324 62.354C46.7 62.354 38.87 54.529 38.87 44.91 38.87 44.807 38.879 44.704 38.88 44.6L39.974 47.764A0.73 0.73 0 0 0 40.87 48.229L42.739 47.689 44.02 52.073A0.73 0.73 0 0 0 45.044 52.528L48.755 50.72 52.045 54.679C52.175 54.836 52.364 54.93 52.567 54.943 52.751 54.954 52.967 54.88 53.115 54.74L56.324 51.681 59.533 54.74A0.73 0.73 0 0 0 60.038 54.944L60.08 54.943A0.74 0.74 0 0 0 60.602 54.679L63.892 50.721 67.604 52.528C67.798 52.62 68.024 52.625 68.222 52.538A0.73 0.73 0 0 0 68.628 52.073L69.91 47.69 71.779 48.229A0.73 0.73 0 0 0 72.675 47.764L73.766 44.602C73.768 44.705 73.776 44.808 73.776 44.91 73.777 54.529 65.949 62.354 56.325 62.354" fill="#ffffff" data-fill-palette-color="quaternary"></path><circle cx="50.6855431" cy="39.676857" r="1.1" fill="#ffffff" data-fill-palette-color="quaternary"></circle><circle cx="61.9622231" cy="39.676857" r="1.1" fill="#ffffff" data-fill-palette-color="quaternary"></circle></g></svg></g></svg></g><g id="text-0"><path d="M24.039 77.406v0c1.291 0.492 2.456 1.133 3.495 1.923 1.039 0.79 1.931 1.687 2.676 2.693 0.748 0.999 1.357 2.084 1.829 3.254 0.465 1.168 0.775 2.379 0.93 3.633 0.162 1.256 0.165 2.536 0.01 3.838-0.151 1.312-0.466 2.597-0.946 3.856v0l-4.487 11.76-26.675-10.177 4.486-11.76c0.48-1.259 1.093-2.427 1.84-3.504 0.75-1.069 1.597-2.02 2.542-2.854 0.951-0.832 1.987-1.533 3.107-2.103 1.127-0.568 2.299-0.977 3.516-1.226 1.219-0.256 2.479-0.332 3.78-0.23 1.301 0.103 2.6 0.402 3.897 0.897zM21.194 84.864v0c-1.45-0.553-2.894-0.9-4.333-1.041-1.437-0.148-2.79-0.037-4.06 0.33-1.267 0.362-2.411 1.003-3.432 1.925-1.015 0.924-1.826 2.18-2.433 3.77v0l-0.742 1.945 21.564 8.227 0.742-1.946c0.597-1.564 0.821-3.03 0.672-4.397-0.148-1.368-0.58-2.614-1.294-3.739-0.706-1.129-1.639-2.118-2.8-2.969-1.159-0.857-2.454-1.559-3.884-2.105z" fill="#7e91c6" data-fill-palette-color="primary"></path><path d="M108.146 23.149l1.345 3.387-19.05 7.564-10.537-26.535 19.05-7.565 1.345 3.387-11.736 4.66 3.259 8.207 9.07-3.602 1.337 3.368-9.07 3.601 3.252 8.188z" fill="#7e91c6" data-fill-palette-color="primary"></path><path d="M196.17 32.965l-1.424 3.332-14.249-6.088 1.423-3.332 3.502 1.496 8.369-19.591-3.501-1.496 1.423-3.332 10.749 4.592-9.794 22.923z" fill="#7e91c6" data-fill-palette-color="primary"></path><path d="M262.495 105.545l-3.373 1.351-0.74-1.848-6.036 2.418-2.927-7.306 6.036-2.417-6.066-15.143c1.547-0.238 3.161-0.39 4.843-0.455 1.684-0.059 3.378-0.041 5.08 0.054 1.702 0.095 3.399 0.259 5.09 0.49 1.685 0.234 3.309 0.537 4.872 0.908v0l2.042 5.098c-2.179-0.351-4.214-0.555-6.106-0.611-1.888-0.065-3.543-0.061-4.966 0.01v0c-1.662 0.079-3.18 0.233-4.555 0.461v0l3.139 7.836 17.095-6.847 2.926 7.305-17.094 6.848z" fill="#7e91c6" data-fill-palette-color="primary"></path><path d="M8.219 140.716c0-1.807 1.465-3.272 3.272-3.272 1.807 0 3.272 1.465 3.272 3.272 0 1.807-1.465 3.272-3.272 3.271-1.807 0-3.272-1.465-3.272-3.271z" fill="#7e91c6" data-fill-palette-color="primary"></path><path d="M265.203 140.716c0-1.807 1.465-3.272 3.271-3.272 1.807 0 3.272 1.465 3.272 3.272 0 1.807-1.465 3.272-3.272 3.271-1.807 0-3.272-1.465-3.271-3.271z" fill="#7e91c6" data-fill-palette-color="primary"></path></g><g id="text-1"><path d="M20.532 184.174l-11.662 4.371-2.762-7.369 26.735-10.022 2.762 7.37-11.68 4.378 3.658 9.759 11.68-4.378 2.766 7.379-26.735 10.021-2.765-7.379 11.661-4.371z" fill="#7e91c6" data-fill-palette-color="primary"></path><path d="M36.515 217.875v0c0.357 0.757 0.748 1.492 1.173 2.204 0.416 0.711 0.879 1.394 1.39 2.049v0c0.539 0.693 1.102 1.281 1.686 1.766 0.594 0.486 1.214 0.827 1.858 1.024 0.641 0.191 1.314 0.214 2.021 0.069 0.712-0.149 1.446-0.519 2.203-1.108v0c0.617-0.481 1.116-1.003 1.497-1.567 0.376-0.569 0.619-1.16 0.729-1.771 0.11-0.612 0.081-1.236-0.087-1.873-0.172-0.642-0.505-1.28-0.999-1.914v0c-0.464-0.596-0.99-1.044-1.578-1.345-0.587-0.311-1.206-0.501-1.857-0.572-0.651-0.071-1.321-0.041-2.011 0.091-0.689 0.123-1.364 0.308-2.026 0.556-0.661 0.248-1.29 0.548-1.887 0.9-0.601 0.347-1.14 0.707-1.617 1.079v0c-0.086 0.067-0.172 0.134-0.258 0.201-0.081 0.063-0.16 0.133-0.237 0.211zM50.232 228.125v0c-0.741 0.577-1.493 0.969-2.255 1.175-0.768 0.21-1.531 0.283-2.289 0.217-0.757-0.075-1.499-0.264-2.228-0.567-0.723-0.308-1.422-0.695-2.096-1.163-0.67-0.461-1.3-0.988-1.891-1.58-0.592-0.583-1.128-1.183-1.61-1.8v0c-0.606-0.778-1.153-1.591-1.639-2.437-0.481-0.85-0.892-1.738-1.233-2.663v0c-0.595 0.653-1.105 1.344-1.53 2.072-0.426 0.737-0.707 1.495-0.843 2.274-0.145 0.777-0.113 1.576 0.095 2.398 0.203 0.825 0.629 1.654 1.277 2.486v0c0.431 0.553 0.924 1.014 1.479 1.384 0.555 0.37 1.149 0.645 1.781 0.825 0.627 0.185 1.273 0.272 1.939 0.262 0.66-0.005 1.325-0.109 1.995-0.312v0l0.936 2.946c-1.094 0.3-2.174 0.382-3.238 0.245-1.07-0.133-2.095-0.425-3.077-0.877-0.977-0.446-1.892-1.023-2.745-1.73-0.849-0.702-1.597-1.469-2.245-2.301v0c-1.075-1.38-1.832-2.834-2.273-4.363-0.45-1.53-0.584-3.043-0.404-4.538 0.171-1.496 0.651-2.935 1.439-4.316 0.782-1.377 1.863-2.603 3.242-3.678v0c1.374-1.071 2.827-1.819 4.36-2.244 1.526-0.421 3.039-0.534 4.537-0.338 1.489 0.195 2.92 0.697 4.293 1.508 1.375 0.801 2.599 1.892 3.674 3.271v0c0.519 0.666 1.001 1.385 1.448 2.159 0.452 0.769 0.834 1.563 1.144 2.382 0.306 0.814 0.526 1.639 0.66 2.475 0.13 0.831 0.125 1.65-0.014 2.457-0.134 0.803-0.416 1.575-0.848 2.316-0.422 0.743-1.036 1.428-1.841 2.055z" fill="#7e91c6" data-fill-palette-color="primary"></path><path d="M71.079 231.801l-17.184 20.159-5.096-4.344 21.7-25.458 1.958 1.669z" fill="#7e91c6" data-fill-palette-color="primary"></path><path d="M86.29 241.592l-13.765 22.632-5.721-3.479 17.382-28.58 2.198 1.336z" fill="#7e91c6" data-fill-palette-color="primary"></path><path d="M114.083 267.469v0c-0.367 1.133-0.865 2.148-1.493 3.047-0.626 0.892-1.34 1.672-2.144 2.341-0.81 0.667-1.7 1.216-2.669 1.645-0.976 0.428-1.989 0.728-3.04 0.903-1.051 0.174-2.129 0.222-3.233 0.142-1.105-0.079-2.197-0.294-3.279-0.645v0c-1.081-0.351-2.092-0.818-3.033-1.402-0.934-0.582-1.776-1.252-2.524-2.01-0.749-0.758-1.389-1.595-1.922-2.512-0.539-0.919-0.937-1.885-1.195-2.899-0.264-1.016-0.387-2.071-0.368-3.167 0.028-1.1 0.223-2.21 0.587-3.33v0c0.361-1.113 0.853-2.123 1.476-3.03 0.628-0.898 1.347-1.681 2.157-2.348 0.806-0.676 1.696-1.224 2.67-1.645 0.969-0.43 1.979-0.732 3.03-0.906 1.051-0.174 2.126-0.223 3.224-0.146 1.105 0.079 2.197 0.294 3.278 0.645v0c1.081 0.351 2.092 0.818 3.033 1.403 0.941 0.584 1.786 1.255 2.534 2.013 0.749 0.758 1.392 1.596 1.931 2.515 0.535 0.91 0.933 1.877 1.195 2.899 0.258 1.014 0.377 2.068 0.359 3.164-0.021 1.102-0.212 2.21-0.574 3.323zM107.587 265.362v0c0.195-0.602 0.37-1.25 0.524-1.944 0.147-0.696 0.245-1.394 0.292-2.095 0.048-0.7 0.026-1.394-0.065-2.081-0.092-0.688-0.272-1.322-0.541-1.904-0.269-0.581-0.648-1.101-1.136-1.559-0.494-0.461-1.123-0.815-1.888-1.063v0c-0.731-0.237-1.424-0.308-2.077-0.213-0.66 0.094-1.275 0.302-1.845 0.625-0.57 0.323-1.095 0.739-1.574 1.249-0.474 0.512-0.903 1.063-1.288 1.654-0.391 0.589-0.73 1.201-1.015 1.838-0.292 0.635-0.531 1.241-0.718 1.817v0c-0.189 0.583-0.352 1.217-0.488 1.902-0.143 0.683-0.23 1.381-0.261 2.094-0.037 0.71-0.013 1.409 0.072 2.095 0.092 0.688 0.273 1.33 0.545 1.926 0.272 0.596 0.647 1.126 1.126 1.588 0.473 0.461 1.075 0.81 1.807 1.048v0c0.751 0.244 1.462 0.324 2.132 0.241 0.664-0.085 1.28-0.286 1.848-0.602 0.568-0.317 1.086-0.724 1.556-1.224 0.469-0.499 0.894-1.048 1.275-1.647 0.38-0.599 0.714-1.221 1.001-1.864 0.281-0.646 0.52-1.273 0.718-1.881z" fill="#7e91c6" data-fill-palette-color="primary"></path><path d="M162.119 259.698l-1.319 18.762-7.085 1.26-12.375-26.798 7.899-1.405 8.221 19.118 0.583-20.684 7.105-1.263 8.171 19.656 1.457-21.368 4.784-0.851-3.182 29.565-7.106 1.264z" fill="#7e91c6" data-fill-palette-color="primary"></path><path d="M212.841 247.467v0c0.562 1.05 0.95 2.112 1.162 3.187 0.21 1.069 0.277 2.125 0.203 3.169-0.08 1.047-0.301 2.068-0.663 3.064-0.368 1-0.853 1.939-1.456 2.818-0.603 0.878-1.315 1.688-2.138 2.429-0.823 0.742-1.735 1.381-2.737 1.917v0c-1.002 0.536-2.039 0.941-3.112 1.215-1.067 0.27-2.133 0.413-3.199 0.428-1.065 0.015-2.113-0.104-3.143-0.355-1.036-0.248-2.009-0.63-2.918-1.147-0.916-0.513-1.762-1.156-2.538-1.929-0.774-0.782-1.439-1.692-1.995-2.73v0c-0.553-1.032-0.94-2.087-1.161-3.165-0.213-1.075-0.279-2.136-0.199-3.182 0.071-1.049 0.292-2.071 0.663-3.064 0.362-0.997 0.844-1.934 1.447-2.813 0.603-0.878 1.312-1.687 2.129-2.425 0.823-0.742 1.735-1.381 2.737-1.917v0c1.002-0.536 2.039-0.941 3.112-1.215 1.073-0.274 2.142-0.418 3.208-0.432 1.065-0.015 2.116 0.102 3.151 0.35 1.027 0.245 2 0.628 2.919 1.147 0.91 0.516 1.753 1.161 2.529 1.934 0.78 0.779 1.446 1.684 1.999 2.716zM206.82 250.691v0c-0.299-0.558-0.645-1.133-1.039-1.725-0.4-0.589-0.836-1.143-1.307-1.662-0.471-0.52-0.987-0.985-1.546-1.396-0.559-0.411-1.142-0.72-1.747-0.928-0.606-0.208-1.243-0.296-1.912-0.262-0.675 0.037-1.366 0.245-2.074 0.625v0c-0.678 0.363-1.209 0.813-1.593 1.35-0.39 0.541-0.666 1.128-0.827 1.763-0.162 0.635-0.225 1.302-0.191 2.001 0.041 0.696 0.141 1.387 0.3 2.075 0.153 0.69 0.361 1.358 0.622 2.005 0.256 0.65 0.526 1.243 0.813 1.777v0c0.289 0.54 0.633 1.097 1.033 1.67 0.394 0.577 0.837 1.123 1.329 1.639 0.486 0.519 1.006 0.986 1.56 1.399 0.559 0.411 1.148 0.724 1.766 0.942 0.618 0.217 1.26 0.313 1.926 0.288 0.66-0.022 1.329-0.214 2.007-0.576v0c0.696-0.373 1.246-0.829 1.652-1.371 0.399-0.538 0.681-1.121 0.846-1.75 0.165-0.629 0.23-1.285 0.196-1.969-0.034-0.684-0.136-1.371-0.304-2.06-0.168-0.689-0.385-1.361-0.65-2.014-0.271-0.65-0.557-1.257-0.86-1.821z" fill="#7e91c6" data-fill-palette-color="primary"></path><path d="M230.275 219.573v0l1.521 7.134c-0.477-0.28-1.033-0.575-1.668-0.885-0.635-0.31-1.284-0.55-1.948-0.721-0.664-0.161-1.317-0.212-1.959-0.151-0.643 0.07-1.21 0.336-1.702 0.797v0c-0.457 0.428-0.742 0.915-0.856 1.46-0.119 0.54-0.118 1.103 0.002 1.69 0.115 0.591 0.317 1.19 0.606 1.796 0.288 0.606 0.614 1.188 0.975 1.744 0.372 0.556 0.747 1.067 1.127 1.531 0.38 0.465 0.718 0.856 1.016 1.175v0l7.851 8.381-4.903 4.592-15.651-16.711 1.877-1.759 5.625 2.033c-0.313-0.882-0.542-1.749-0.688-2.6-0.145-0.852-0.171-1.681-0.078-2.487 0.098-0.801 0.336-1.578 0.712-2.331 0.371-0.749 0.919-1.462 1.645-2.142v0c0.377-0.354 0.827-0.714 1.35-1.082 0.518-0.373 1.072-0.692 1.663-0.957 0.582-0.265 1.173-0.455 1.774-0.57 0.605-0.11 1.175-0.089 1.709 0.063z" fill="#7e91c6" data-fill-palette-color="primary"></path><path d="M235.191 203.431l21.394 15.62-3.949 5.408-27.016-19.725 1.516-2.077z" fill="#7e91c6" data-fill-palette-color="primary"></path><path d="M244.759 171.217l28.821 12.279-1.012 2.376-5.747 0.78c0.655 0.597 1.193 1.263 1.613 1.997 0.422 0.727 0.725 1.492 0.908 2.295 0.18 0.809 0.237 1.632 0.169 2.469-0.077 0.84-0.289 1.667-0.635 2.481v0c-0.683 1.603-1.579 2.915-2.687 3.937-1.109 1.022-2.344 1.76-3.707 2.215-1.369 0.452-2.819 0.626-4.35 0.521-1.534-0.114-3.069-0.497-4.602-1.15v0c-1.534-0.653-2.87-1.493-4.009-2.518-1.142-1.034-2.018-2.199-2.628-3.494-0.616-1.298-0.939-2.701-0.97-4.208-0.031-1.507 0.295-3.062 0.978-4.666v0c0.523-1.227 1.242-2.256 2.158-3.086 0.907-0.827 2.022-1.387 3.346-1.681v0l-10.274-4.377zM260.427 185.226v0c-0.482-0.205-1.032-0.399-1.65-0.58-0.614-0.173-1.252-0.308-1.913-0.405-0.661-0.097-1.329-0.137-2.002-0.121-0.667 0.019-1.298 0.12-1.893 0.303-0.596 0.183-1.13 0.465-1.604 0.848-0.467 0.385-0.836 0.894-1.105 1.527v0c-0.296 0.695-0.43 1.348-0.402 1.959 0.032 0.62 0.18 1.201 0.445 1.743 0.265 0.542 0.622 1.049 1.071 1.521 0.443 0.47 0.934 0.897 1.473 1.283 0.536 0.391 1.097 0.741 1.683 1.049 0.577 0.312 1.132 0.582 1.664 0.809v0c0.538 0.229 1.12 0.444 1.745 0.644 0.622 0.206 1.26 0.367 1.914 0.482 0.651 0.122 1.305 0.183 1.964 0.182 0.652-0.003 1.266-0.097 1.84-0.281 0.574-0.184 1.096-0.48 1.565-0.887 0.466-0.4 0.848-0.948 1.144-1.643v0c0.296-0.695 0.433-1.354 0.41-1.978-0.02-0.63-0.161-1.219-0.424-1.767-0.262-0.548-0.612-1.056-1.049-1.523-0.443-0.47-0.936-0.902-1.478-1.295-0.545-0.388-1.109-0.739-1.692-1.054-0.586-0.309-1.154-0.581-1.706-0.816z" fill="#7e91c6" data-fill-palette-color="primary"></path></g></svg></g></svg></g></svg></g><g></g></svg></g><defs></defs></svg><rect width="279.72" height="279.72" fill="none" stroke="none" visibility="hidden"></rect></g></svg></g></svg>